<svg width="33" height="33" viewBox="0 0 33 33" fill="none" xmlns="http://www.w3.org/2000/svg">
<path d="M28.3768 17.7219L19.3768 26.7219C19.095 27.0037 18.7128 27.162 18.3143 27.162C17.9158 27.162 17.5336 27.0037 17.2518 26.7219C16.97 26.4401 16.8117 26.0579 16.8117 25.6594C16.8117 25.2609 16.97 24.8787 17.2518 24.5969L23.6906 18.1607H5.31556C4.91774 18.1607 4.53621 18.0026 4.2549 17.7213C3.9736 17.44 3.81556 17.0585 3.81556 16.6607C3.81556 16.2629 3.9736 15.8813 4.2549 15.6C4.53621 15.3187 4.91774 15.1607 5.31556 15.1607H23.6906L17.2543 8.72068C16.9725 8.43889 16.8142 8.0567 16.8142 7.65818C16.8142 7.25967 16.9725 6.87747 17.2543 6.59568C17.5361 6.31389 17.9183 6.15558 18.3168 6.15558C18.7153 6.15558 19.0975 6.31389 19.3793 6.59568L28.3793 15.5957C28.5192 15.7352 28.6301 15.901 28.7057 16.0836C28.7813 16.2661 28.8201 16.4618 28.8199 16.6593C28.8196 16.8569 28.7804 17.0525 28.7043 17.2348C28.6283 17.4172 28.517 17.5827 28.3768 17.7219Z" fill="black"/>
</svg>
