<svg width="33" height="33" viewBox="0 0 33 33" fill="none" xmlns="http://www.w3.org/2000/svg">
<path d="M27.5423 21.0185C27.4494 21.1115 27.3391 21.1853 27.2177 21.2356C27.0963 21.2859 26.9662 21.3118 26.8348 21.3118C26.7034 21.3118 26.5732 21.2859 26.4518 21.2356C26.3304 21.1853 26.2202 21.1115 26.1273 21.0185L16.8348 11.7248L7.54228 21.0185C7.35464 21.2062 7.10015 21.3116 6.83478 21.3116C6.56942 21.3116 6.31493 21.2062 6.12728 21.0185C5.93964 20.8309 5.83423 20.5764 5.83423 20.311C5.83423 20.0457 5.93964 19.7912 6.12728 19.6035L16.1273 9.60353C16.2202 9.51055 16.3304 9.43679 16.4518 9.38647C16.5732 9.33614 16.7034 9.31024 16.8348 9.31024C16.9662 9.31024 17.0963 9.33614 17.2177 9.38647C17.3391 9.43679 17.4494 9.51055 17.5423 9.60353L27.5423 19.6035C27.6353 19.6964 27.709 19.8067 27.7593 19.9281C27.8097 20.0495 27.8356 20.1796 27.8356 20.311C27.8356 20.4424 27.8097 20.5726 27.7593 20.694C27.709 20.8154 27.6353 20.9257 27.5423 21.0185Z" fill="black"/>
</svg>
