<svg width="33" height="33" viewBox="0 0 33 33" fill="none" xmlns="http://www.w3.org/2000/svg">
<path d="M23.2485 17.9309L13.2485 27.9309C12.9667 28.2126 12.5845 28.371 12.186 28.371C11.7874 28.371 11.4052 28.2126 11.1235 27.9309C10.8417 27.6491 10.6833 27.2669 10.6833 26.8684C10.6833 26.4698 10.8417 26.0876 11.1235 25.8059L20.0622 16.8696L11.126 7.93086C10.9864 7.79133 10.8757 7.62568 10.8002 7.44338C10.7247 7.26107 10.6858 7.06568 10.6858 6.86836C10.6858 6.67103 10.7247 6.47564 10.8002 6.29333C10.8757 6.11103 10.9864 5.94538 11.126 5.80586C11.2655 5.66633 11.4311 5.55564 11.6134 5.48013C11.7957 5.40462 11.9911 5.36575 12.1885 5.36575C12.3858 5.36575 12.5812 5.40462 12.7635 5.48013C12.9458 5.55564 13.1114 5.66633 13.251 5.80586L23.251 15.8059C23.3906 15.9454 23.5014 16.1111 23.5769 16.2935C23.6524 16.4759 23.6911 16.6715 23.6909 16.8689C23.6907 17.0663 23.6515 17.2617 23.5755 17.444C23.4996 17.6262 23.3885 17.7917 23.2485 17.9309Z" fill="black"/>
</svg>
