<svg width="25" height="25" viewBox="0 0 25 25" fill="none" xmlns="http://www.w3.org/2000/svg">
<path d="M20.8094 9.81174L13.3094 17.3117C13.2397 17.3815 13.157 17.4368 13.0659 17.4745C12.9749 17.5123 12.8773 17.5317 12.7787 17.5317C12.6802 17.5317 12.5826 17.5123 12.4915 17.4745C12.4005 17.4368 12.3178 17.3815 12.2481 17.3117L4.74811 9.81174C4.60738 9.67101 4.52832 9.48014 4.52832 9.28112C4.52832 9.08209 4.60738 8.89122 4.74811 8.75049C4.88884 8.60976 5.07971 8.5307 5.27874 8.5307C5.47776 8.5307 5.66863 8.60976 5.80936 8.75049L12.7787 15.7208L19.7481 8.75049C19.8178 8.68081 19.9005 8.62553 19.9916 8.58782C20.0826 8.55011 20.1802 8.5307 20.2787 8.5307C20.3773 8.5307 20.4749 8.55011 20.5659 8.58782C20.657 8.62553 20.7397 8.68081 20.8094 8.75049C20.879 8.82018 20.9343 8.9029 20.972 8.99395C21.0097 9.08499 21.0292 9.18257 21.0292 9.28112C21.0292 9.37966 21.0097 9.47725 20.972 9.56829C20.9343 9.65933 20.879 9.74206 20.8094 9.81174Z" fill="black"/>
</svg>
