<?xml version="1.0" encoding="utf-8"?>
<!-- Generator: Adobe Illustrator 26.5.0, SVG Export Plug-In . SVG Version: 6.00 Build 0)  -->
<svg version="1.1" id="Camada_1" xmlns="http://www.w3.org/2000/svg" xmlns:xlink="http://www.w3.org/1999/xlink" x="0px" y="0px"
	 viewBox="0 0 100 100" style="enable-background:new 0 0 100 100;" xml:space="preserve">
<path d="M95.1,71h-9.8c0.5-0.8,0.8-1.7,0.8-2.6V22c0-2.6-2.1-4.7-4.7-4.7H17.9c-2.6,0-4.7,2.1-4.7,4.7v46.5c0,0.9,0.3,1.8,0.8,2.6
	H4.2c-0.6,0-1.1,0.5-1.1,1.1v2.8c0,4.9,4,8.9,8.9,8.9c0,0,0,0,0,0h75.1c2.8,0,5.5-1.3,7.2-3.6c1.2-1.5,1.8-3.4,1.8-5.3v-2.8
	C96.2,71.5,95.7,71,95.1,71C95.1,71,95.1,71,95.1,71z M42.6,73.2h14.2v4H42.6V73.2z M15.4,22c0-1.4,1.1-2.5,2.5-2.5h63.5
	c1.4,0,2.5,1.1,2.5,2.5v46.5c0,1.4-1.1,2.5-2.5,2.5H17.9c-1.4,0-2.5-1.1-2.5-2.5V22z M94,74.9c0,3.7-3,6.8-6.8,6.8H12.1
	c-3.7,0-6.8-3-6.8-6.8c0,0,0,0,0,0v-1.7h35.1v5.1c0,0.6,0.5,1.1,1.1,1.1h16.3c0.6,0,1.1-0.5,1.1-1.1v-5.1H94V74.9z"/>
<path d="M18.9,68h61.5c0.6,0,1.1-0.5,1.1-1.1V23.5c0-0.6-0.5-1.1-1.1-1.1H18.9c-0.6,0-1.1,0.5-1.1,1.1V67C17.8,67.6,18.3,68,18.9,68
	z M20,24.5h59.3v41.3H20V24.5z"/>
<path d="M73.7,30H25.6c-0.6,0-1.1,0.5-1.1,1.1v5.1c0,0.6,0.5,1.1,1.1,1.1h48.1c0.6,0,1.1-0.5,1.1-1.1v-5.1
	C74.8,30.5,74.3,30,73.7,30z M72.6,35.2H26.7v-3h45.9V35.2z"/>
<path d="M41.6,52.1H26.1c-0.6,0-1.1,0.5-1.1,1.1c0,0.6,0.5,1.1,1.1,1.1h15.6c0.6,0,1.1-0.5,1.1-1.1C42.7,52.6,42.2,52.1,41.6,52.1z"
	/>
<path d="M41.6,46.1H26.1c-0.6,0-1.1,0.5-1.1,1.1s0.5,1.1,1.1,1.1h15.6c0.6,0,1.1-0.5,1.1-1.1S42.2,46.1,41.6,46.1z"/>
<path d="M41.6,58.6H26.1c-0.6,0-1.1,0.5-1.1,1.1c0,0.6,0.5,1.1,1.1,1.1h15.6c0.6,0,1.1-0.5,1.1-1.1C42.7,59.1,42.2,58.6,41.6,58.6z"
	/>
<path d="M72.9,52.1H57.3c-0.6,0-1.1,0.5-1.1,1.1c0,0.6,0.5,1.1,1.1,1.1h15.6c0.6,0,1.1-0.5,1.1-1.1C74,52.6,73.5,52.1,72.9,52.1z"/>
<path d="M72.9,46.1H57.3c-0.6,0-1.1,0.5-1.1,1.1s0.5,1.1,1.1,1.1h15.6c0.6,0,1.1-0.5,1.1-1.1S73.5,46.1,72.9,46.1z"/>
<path d="M72.9,58.6H57.3c-0.6,0-1.1,0.5-1.1,1.1c0,0.6,0.5,1.1,1.1,1.1h15.6c0.6,0,1.1-0.5,1.1-1.1C74,59.1,73.5,58.6,72.9,58.6z"/>
</svg>
