<?xml version="1.0" encoding="utf-8"?>
<!-- Generator: Adobe Illustrator 26.5.0, SVG Export Plug-In . SVG Version: 6.00 Build 0)  -->
<svg version="1.1" id="Camada_1" xmlns="http://www.w3.org/2000/svg" xmlns:xlink="http://www.w3.org/1999/xlink" x="0px" y="0px"
	 viewBox="0 0 100 100" style="enable-background:new 0 0 100 100;" xml:space="preserve">
<g>
	<path d="M49.7,96.6c-25.4,0-46-20.6-46-46s20.6-46,46-46s46,20.6,46,46c0,11.4-4.2,22.4-11.9,30.9c-0.4,0.5-1.1,0.5-1.6,0.1
		c-0.5-0.4-0.5-1.1-0.1-1.6c7.3-8.1,11.3-18.5,11.3-29.4c0-24.2-19.6-43.8-43.8-43.8S5.9,26.4,5.9,50.6s19.6,43.8,43.8,43.8
		c10,0,19.8-3.5,27.6-9.8c0.5-0.4,1.2-0.3,1.5,0.2c0.4,0.5,0.3,1.2-0.2,1.5C70.5,92.9,60.2,96.6,49.7,96.6z"/>
	<path d="M49.7,87.8c-20.5,0-37.2-16.7-37.2-37.2c0-8,2.5-15.7,7.3-22.1c0.4-0.5,1.1-0.6,1.5-0.2c0.5,0.4,0.6,1.1,0.2,1.5
		c-4.5,6-6.8,13.2-6.8,20.8c0,19.3,15.7,35,35,35s35-15.7,35-35s-15.7-35-35-35c-8.8,0-17.2,3.3-23.6,9.2c-0.4,0.4-1.1,0.4-1.6-0.1
		c-0.4-0.4-0.4-1.1,0.1-1.6c6.9-6.3,15.8-9.8,25.1-9.8c20.5,0,37.2,16.7,37.2,37.2S70.2,87.8,49.7,87.8z"/>
	<path d="M49.7,69.3C39.4,69.3,31,60.9,31,50.6c0-8.9,6.3-16.6,15-18.3c0.6-0.1,1.2,0.3,1.3,0.9c0.1,0.6-0.3,1.2-0.9,1.3
		c-7.7,1.5-13.2,8.4-13.2,16.2c0,9.1,7.4,16.5,16.5,16.5s16.5-7.4,16.5-16.5c0-7.8-5.6-14.6-13.2-16.2c-0.6-0.1-1-0.7-0.9-1.3
		c0.1-0.6,0.7-1,1.3-0.9c8.7,1.8,15,9.5,15,18.3C68.4,60.9,60,69.3,49.7,69.3z"/>
	<path d="M49.7,37.6c-2.4,0-4.4-1.8-4.6-4.2c0-0.2,0-0.3,0-0.5c0-2.5,2.1-4.6,4.6-4.6c2.5,0,4.6,2.1,4.6,4.6c0,0.1,0,0.3,0,0.5
		C54,35.8,52.1,37.6,49.7,37.6z M49.7,30.5c-1.3,0-2.4,1.1-2.4,2.4c0,0.1,0,0.2,0,0.2c0.1,1.2,1.2,2.2,2.4,2.2
		c1.3,0,2.3-0.9,2.4-2.2c0-0.1,0-0.2,0-0.2C52.1,31.6,51,30.5,49.7,30.5z"/>
	<path d="M80.9,88.2c-1.6,0-3.1-0.8-3.9-2.2c-0.5-0.7-0.7-1.6-0.7-2.5c0-2.5,2.1-4.6,4.6-4.6c1,0,1.9,0.3,2.7,0.8
		c1.2,0.9,2,2.3,2,3.8C85.5,86.1,83.5,88.2,80.9,88.2z M80.9,81.1c-1.3,0-2.4,1.1-2.4,2.4c0,0.5,0.1,0.9,0.4,1.3
		c0.4,0.7,1.2,1.1,2,1.1c1.3,0,2.4-1.1,2.4-2.4c0-0.8-0.4-1.5-1-2C81.9,81.3,81.4,81.1,80.9,81.1z"/>
	<path d="M23.3,31.4c-1.3,0-2.6-0.6-3.5-1.6c-0.8-0.9-1.2-1.9-1.2-3.1c0-2.5,2.1-4.6,4.6-4.6c1,0,1.9,0.3,2.7,0.9
		c1.2,0.9,1.9,2.3,1.9,3.8C27.9,29.3,25.8,31.4,23.3,31.4z M23.3,24.4c-1.3,0-2.4,1.1-2.4,2.4c0,0.6,0.2,1.2,0.6,1.6
		c0.5,0.5,1.1,0.8,1.8,0.8c1.3,0,2.4-1.1,2.4-2.4c0-0.8-0.4-1.5-1-2C24.2,24.5,23.8,24.4,23.3,24.4z"/>
	<path d="M49.9,59.6c-4.9,0-8.8-3.9-8.8-8.8S45,42,49.9,42s8.8,3.9,8.8,8.8S54.7,59.6,49.9,59.6z M49.9,44.2c-3.6,0-6.6,3-6.6,6.6
		c0,3.6,3,6.6,6.6,6.6c3.6,0,6.6-3,6.6-6.6C56.5,47.1,53.5,44.2,49.9,44.2z"/>
</g>
</svg>
