<svg width="21" height="21" viewBox="0 0 21 21" fill="none" xmlns="http://www.w3.org/2000/svg">
<path d="M18.2344 3.85815H3.23438C3.06861 3.85815 2.90964 3.924 2.79243 4.04121C2.67522 4.15842 2.60938 4.31739 2.60938 4.48315V15.1082C2.60938 15.4397 2.74107 15.7576 2.97549 15.992C3.20991 16.2265 3.52785 16.3582 3.85938 16.3582H17.6094C17.9409 16.3582 18.2588 16.2265 18.4933 15.992C18.7277 15.7576 18.8594 15.4397 18.8594 15.1082V4.48315C18.8594 4.31739 18.7935 4.15842 18.6763 4.04121C18.5591 3.924 18.4001 3.85815 18.2344 3.85815ZM10.7344 10.5105L4.84141 5.10815H16.6273L10.7344 10.5105ZM8.44609 10.1082L3.85938 14.3121V5.90425L8.44609 10.1082ZM9.37109 10.9558L10.3086 11.8191C10.4239 11.9249 10.5747 11.9837 10.7312 11.9837C10.8878 11.9837 11.0386 11.9249 11.1539 11.8191L12.0914 10.9558L16.6227 15.1082H4.84141L9.37109 10.9558ZM13.0227 10.1082L17.6094 5.90347V14.3128L13.0227 10.1082Z" fill="black"/>
</svg>
