<svg width="21" height="21" viewBox="0 0 21 21" fill="none" xmlns="http://www.w3.org/2000/svg">
<path d="M18.9232 17.025C17.7334 14.9679 15.8998 13.4929 13.7599 12.7937C14.8184 12.1636 15.6408 11.2035 16.1007 10.0607C16.5607 8.91801 16.6328 7.65589 16.3061 6.4682C15.9793 5.28051 15.2717 4.23292 14.292 3.4863C13.3122 2.73968 12.1144 2.33533 10.8826 2.33533C9.65078 2.33533 8.45301 2.73968 7.47324 3.4863C6.49347 4.23292 5.78587 5.28051 5.45911 6.4682C5.13235 7.65589 5.20449 8.91801 5.66446 10.0607C6.12443 11.2035 6.94679 12.1636 8.00525 12.7937C5.86541 13.4921 4.03182 14.9671 2.84197 17.025C2.79834 17.0961 2.7694 17.1753 2.75685 17.2578C2.74431 17.3403 2.74842 17.4245 2.76894 17.5054C2.78947 17.5863 2.82598 17.6622 2.87634 17.7288C2.9267 17.7954 2.98988 17.8512 3.06215 17.8929C3.13442 17.9347 3.21432 17.9615 3.29713 17.9719C3.37995 17.9822 3.464 17.9759 3.54433 17.9533C3.62466 17.9306 3.69964 17.8921 3.76485 17.84C3.83006 17.7879 3.88418 17.7233 3.924 17.65C5.39588 15.1062 7.99744 13.5875 10.8826 13.5875C13.7678 13.5875 16.3693 15.1062 17.8412 17.65C17.881 17.7233 17.9351 17.7879 18.0003 17.84C18.0655 17.8921 18.1405 17.9306 18.2209 17.9533C18.3012 17.9759 18.3852 17.9822 18.4681 17.9719C18.5509 17.9615 18.6308 17.9347 18.703 17.8929C18.7753 17.8512 18.8385 17.7954 18.8889 17.7288C18.9392 17.6622 18.9757 17.5863 18.9962 17.5054C19.0168 17.4245 19.0209 17.3403 19.0083 17.2578C18.9958 17.1753 18.9669 17.0961 18.9232 17.025ZM6.5076 7.96245C6.5076 7.09716 6.76419 6.2513 7.24492 5.53183C7.72565 4.81237 8.40893 4.25161 9.20836 3.92048C10.0078 3.58935 10.8875 3.50271 11.7361 3.67152C12.5848 3.84033 13.3643 4.25701 13.9762 4.86886C14.588 5.48071 15.0047 6.26027 15.1735 7.10893C15.3423 7.9576 15.2557 8.83727 14.9246 9.63669C14.5934 10.4361 14.0327 11.1194 13.3132 11.6001C12.5938 12.0809 11.7479 12.3375 10.8826 12.3375C9.72266 12.3362 8.61058 11.8749 7.79038 11.0547C6.97017 10.2345 6.50884 9.12239 6.5076 7.96245Z" fill="black"/>
</svg>
